<?xml version="1.0" encoding="UTF-8" standalone="no"?>
<!-- Created with Inkscape (http://www.inkscape.org/) -->

<svg
   xmlns:dc="http://purl.org/dc/elements/1.1/"
   xmlns:cc="http://creativecommons.org/ns#"
   xmlns:rdf="http://www.w3.org/1999/02/22-rdf-syntax-ns#"
   xmlns:svg="http://www.w3.org/2000/svg"
   xmlns="http://www.w3.org/2000/svg"
   xmlns:xlink="http://www.w3.org/1999/xlink"
   xmlns:sodipodi="http://sodipodi.sourceforge.net/DTD/sodipodi-0.dtd"
   xmlns:inkscape="http://www.inkscape.org/namespaces/inkscape"
   width="400"
   height="400"
   id="svg2"
   version="1.1"
   inkscape:version="0.48.4 r9939"
   sodipodi:docname="application-icon.png"
   inkscape:export-filename="/home/shadiq/NetBeansProjects/TreeHTMLParse/src/org/emje/treehtmlparse/resources/application-icon.png"
   inkscape:export-xdpi="90"
   inkscape:export-ydpi="90">
  <defs
     id="defs4">
    <filter
       height="1.2034571"
       y="-0.10172857"
       width="1.0977209"
       x="-0.048860457"
       id="filter7062"
       inkscape:collect="always"
       color-interpolation-filters="sRGB">
      <feGaussianBlur
         id="feGaussianBlur7064"
         stdDeviation="1.8813246"
         inkscape:collect="always" />
    </filter>
    <filter
       height="1.2174352"
       y="-0.10871763"
       width="1.0967754"
       x="-0.048387717"
       id="filter7058"
       inkscape:collect="always"
       color-interpolation-filters="sRGB">
      <feGaussianBlur
         id="feGaussianBlur7060"
         stdDeviation="1.8813246"
         inkscape:collect="always" />
    </filter>
    <filter
       height="1.2420131"
       y="-0.12100657"
       width="1.1320845"
       x="-0.066042237"
       id="filter7054"
       inkscape:collect="always"
       color-interpolation-filters="sRGB">
      <feGaussianBlur
         id="feGaussianBlur7056"
         stdDeviation="1.8813246"
         inkscape:collect="always" />
    </filter>
    <filter
       height="1.1285776"
       y="-0.064288795"
       width="1.2060083"
       x="-0.10300414"
       id="filter6809"
       inkscape:collect="always"
       color-interpolation-filters="sRGB">
      <feGaussianBlur
         id="feGaussianBlur6811"
         stdDeviation="10.293708"
         inkscape:collect="always" />
    </filter>
    <filter
       id="filter6725"
       inkscape:collect="always"
       color-interpolation-filters="sRGB">
      <feGaussianBlur
         id="feGaussianBlur6727"
         stdDeviation="10.829078"
         inkscape:collect="always" />
    </filter>
    <radialGradient
       r="92.14286"
       fy="409.14789"
       fx="303.57144"
       cy="409.14789"
       cx="303.57144"
       gradientTransform="matrix(1,0,0,0.5930231,0,166.51371)"
       gradientUnits="userSpaceOnUse"
       id="radialGradient4336"
       xlink:href="#linearGradient3414"
       inkscape:collect="always" />
    <radialGradient
       r="92.14286"
       fy="409.14789"
       fx="303.57144"
       cy="409.14789"
       cx="303.57144"
       gradientTransform="matrix(1,0,0,0.5930232,0,166.51369)"
       gradientUnits="userSpaceOnUse"
       id="radialGradient4334"
       xlink:href="#linearGradient3414"
       inkscape:collect="always" />
    <radialGradient
       r="92.14286"
       fy="409.14789"
       fx="303.57144"
       cy="409.14789"
       cx="303.57144"
       gradientTransform="matrix(1,0,0,0.5930232,0,166.51369)"
       gradientUnits="userSpaceOnUse"
       id="radialGradient4332"
       xlink:href="#linearGradient3414"
       inkscape:collect="always" />
    <radialGradient
       r="92.14286"
       fy="409.14789"
       fx="303.57144"
       cy="409.14789"
       cx="303.57144"
       gradientTransform="matrix(1,0,0,0.5930232,0,166.51369)"
       gradientUnits="userSpaceOnUse"
       id="radialGradient4330"
       xlink:href="#linearGradient3414"
       inkscape:collect="always" />
    <radialGradient
       r="92.14286"
       fy="409.14789"
       fx="303.57144"
       cy="409.14789"
       cx="303.57144"
       gradientTransform="matrix(1,0,0,0.5930232,0,166.51369)"
       gradientUnits="userSpaceOnUse"
       id="radialGradient4328"
       xlink:href="#linearGradient3414"
       inkscape:collect="always" />
    <radialGradient
       r="92.14286"
       fy="409.14789"
       fx="303.57144"
       cy="409.14789"
       cx="303.57144"
       gradientTransform="matrix(1,0,0,0.5930232,0,166.51369)"
       gradientUnits="userSpaceOnUse"
       id="radialGradient4326"
       xlink:href="#linearGradient3414"
       inkscape:collect="always" />
    <inkscape:perspective
       sodipodi:type="inkscape:persp3d"
       inkscape:vp_x="0 : 526.18109 : 1"
       inkscape:vp_y="0 : 1000 : 0"
       inkscape:vp_z="744.09448 : 526.18109 : 1"
       inkscape:persp3d-origin="372.04724 : 350.78739 : 1"
       id="perspective2580" />
    <inkscape:perspective
       id="perspective10"
       inkscape:persp3d-origin="372.04724 : 350.78739 : 1"
       inkscape:vp_z="744.09448 : 526.18109 : 1"
       inkscape:vp_y="0 : 1000 : 0"
       inkscape:vp_x="0 : 526.18109 : 1"
       sodipodi:type="inkscape:persp3d" />
    <linearGradient
       id="linearGradient3366">
      <stop
         id="stop3368"
         offset="0"
         style="stop-color:#80878b;stop-opacity:1;" />
      <stop
         id="stop3370"
         offset="1"
         style="stop-color:#f4fcff;stop-opacity:1;" />
    </linearGradient>
    <linearGradient
       id="linearGradient3414"
       inkscape:collect="always">
      <stop
         id="stop3416"
         offset="0"
         style="stop-color:#fdffff;stop-opacity:1;" />
      <stop
         id="stop3418"
         offset="1"
         style="stop-color:#fdffff;stop-opacity:0;" />
    </linearGradient>
    <linearGradient
       y2="163.1989"
       x2="11.7259"
       y1="42.630901"
       x1="-42.027302"
       gradientUnits="userSpaceOnUse"
       id="XMLID_3_">
      <stop
         id="stop12"
         style="stop-color:#A86A2B"
         offset="0" />
      <stop
         id="stop14"
         style="stop-color:#D49658"
         offset="1" />
    </linearGradient>
    <linearGradient
       y2="128.8351"
       x2="90.344704"
       y1="54.485401"
       x1="33.577599"
       gradientUnits="userSpaceOnUse"
       id="XMLID_4_">
      <stop
         id="stop19"
         style="stop-color:#A86A2B"
         offset="0" />
      <stop
         id="stop21"
         style="stop-color:#D49658"
         offset="1" />
    </linearGradient>
    <inkscape:perspective
       sodipodi:type="inkscape:persp3d"
       inkscape:vp_x="0 : 0.5 : 1"
       inkscape:vp_y="0 : 1000 : 0"
       inkscape:vp_z="1 : 0.5 : 1"
       inkscape:persp3d-origin="0.5 : 0.33333333 : 1"
       id="perspective2966" />
    <inkscape:perspective
       sodipodi:type="inkscape:persp3d"
       inkscape:vp_x="0 : 0.5 : 1"
       inkscape:vp_y="0 : 1000 : 0"
       inkscape:vp_z="1 : 0.5 : 1"
       inkscape:persp3d-origin="0.5 : 0.33333333 : 1"
       id="perspective2944" />
    <inkscape:perspective
       sodipodi:type="inkscape:persp3d"
       inkscape:vp_x="0 : 0.5 : 1"
       inkscape:vp_y="0 : 1000 : 0"
       inkscape:vp_z="1 : 0.5 : 1"
       inkscape:persp3d-origin="0.5 : 0.33333333 : 1"
       id="perspective2884" />
    <inkscape:perspective
       id="perspective10-8"
       inkscape:persp3d-origin="372.04724 : 350.78739 : 1"
       inkscape:vp_z="744.09448 : 526.18109 : 1"
       inkscape:vp_y="0 : 1000 : 0"
       inkscape:vp_x="0 : 526.18109 : 1"
       sodipodi:type="inkscape:persp3d" />
    <linearGradient
       inkscape:collect="always"
       xlink:href="#XMLID_3_"
       id="linearGradient4186"
       gradientUnits="userSpaceOnUse"
       x1="-42.027302"
       y1="42.630901"
       x2="11.7259"
       y2="163.1989" />
    <linearGradient
       inkscape:collect="always"
       xlink:href="#XMLID_4_"
       id="linearGradient4188"
       gradientUnits="userSpaceOnUse"
       x1="33.577599"
       y1="54.485401"
       x2="90.344704"
       y2="128.8351" />
  </defs>
  <sodipodi:namedview
     id="base"
     pagecolor="#ffffff"
     bordercolor="#666666"
     borderopacity="1.0"
     inkscape:pageopacity="0"
     inkscape:pageshadow="2"
     inkscape:zoom="0.63503172"
     inkscape:cx="-33.835039"
     inkscape:cy="104.24566"
     inkscape:document-units="px"
     inkscape:current-layer="layer1"
     showgrid="false"
     inkscape:window-width="1317"
     inkscape:window-height="744"
     inkscape:window-x="49"
     inkscape:window-y="24"
     inkscape:window-maximized="1" />
  <metadata
     id="metadata7">
    <rdf:RDF>
      <cc:Work
         rdf:about="">
        <dc:format>image/svg+xml</dc:format>
        <dc:type
           rdf:resource="http://purl.org/dc/dcmitype/StillImage" />
        <dc:title></dc:title>
      </cc:Work>
    </rdf:RDF>
  </metadata>
  <g
     inkscape:label="Layer 1"
     inkscape:groupmode="layer"
     id="layer1"
     transform="translate(0,-652.36218)">
    <g
       id="g3073"
       transform="matrix(0.32977648,0,0,0.30657253,215.65142,673.26164)" />
    <g
       id="g3075"
       transform="matrix(0.32977648,0,0,0.30657253,215.65142,673.26164)" />
    <g
       id="g3077"
       transform="matrix(0.32977648,0,0,0.30657253,215.65142,673.26164)" />
    <g
       id="g3079"
       transform="matrix(0.32977648,0,0,0.30657253,215.65142,673.26164)" />
    <g
       id="g3081"
       transform="matrix(0.32977648,0,0,0.30657253,215.65142,673.26164)" />
    <g
       id="g3083"
       transform="matrix(0.32977648,0,0,0.30657253,215.65142,673.26164)" />
    <g
       id="g3085"
       transform="matrix(0.32977648,0,0,0.30657253,215.65142,673.26164)" />
    <g
       id="g3087"
       transform="matrix(0.32977648,0,0,0.30657253,215.65142,673.26164)" />
    <g
       id="g3089"
       transform="matrix(0.32977648,0,0,0.30657253,215.65142,673.26164)" />
    <g
       id="g3091"
       transform="matrix(0.32977648,0,0,0.30657253,215.65142,673.26164)" />
    <g
       id="g3093"
       transform="matrix(0.32977648,0,0,0.30657253,215.65142,673.26164)" />
    <g
       id="g3095"
       transform="matrix(0.32977648,0,0,0.30657253,215.65142,673.26164)" />
    <g
       id="g3097"
       transform="matrix(0.32977648,0,0,0.30657253,215.65142,673.26164)" />
    <g
       id="g3099"
       transform="matrix(0.32977648,0,0,0.30657253,215.65142,673.26164)" />
    <g
       id="g3101"
       transform="matrix(0.32977648,0,0,0.30657253,215.65142,673.26164)" />
    <g
       id="g4140"
       transform="matrix(1.0677293,0,0,1.0973278,13.345339,-87.267494)">
      <polyline
         transform="matrix(1.1228121,0,0,1.0794297,140.36014,866.23552)"
         points="11.129,6.031 43.783,-16.074 126.173,4.523 96.65,30 11.129,6.031  "
         id="polyline51"
         style="opacity:0.15;fill:#ffffff" />
      <path
         style="fill:#d49658"
         inkscape:connector-curvature="0"
         id="path7"
         d="m 188.57144,847.53764 c 0,0 -33.93587,22.08513 -35.72339,23.24876 -1.79313,-1.14851 -34.59159,-22.17149 -34.59159,-22.17149 -0.38512,-0.24719 -0.85895,-0.33138 -1.31032,-0.23315 L 26.69787,867.9054 c -0.659091,0.14249 -1.167725,0.64874 -1.291234,1.28776 -0.01909,0.10039 -0.02919,0.20078 -0.02919,0.299 0,0.5354 0.276212,1.04489 0.748916,1.35037 0,0 33.716924,21.77102 36.363392,23.47975 -1.823447,2.51508 -24.963481,34.43381 -24.963481,34.43381 -0.200984,0.27634 -0.304282,0.60124 -0.304282,0.92939 0,0.17595 0.03032,0.35297 0.09095,0.5246 0.174035,0.49007 0.579371,0.8711 1.093619,1.02654 0,0 22.9267,6.94613 25.081376,7.59811 0.0034,2.28083 0.08982,54.36116 0.08982,54.36116 0.0011,0.71998 0.492915,1.35252 1.210392,1.55653 l 96.943592,27.68958 c 0.30429,0.087 0.6299,0.091 0.93531,0.01 l 86.11407,-23.03936 c 0.72758,-0.19537 1.23509,-0.83224 1.23846,-1.55869 0,0 0.3099,-55.77198 0.32225,-58.00424 2.10527,-0.6822 26.58594,-8.62248 26.58594,-8.62248 0.53222,-0.17163 0.94092,-0.58721 1.09026,-1.10642 0.0415,-0.14356 0.0618,-0.28929 0.0618,-0.43393 0,-0.38212 -0.13923,-0.75668 -0.40309,-1.0546 0,0 -24.40657,-27.56756 -26.4164,-29.8376 2.35341,-1.95269 31.87664,-26.44495 31.87664,-26.44495 0.37726,-0.31303 0.5861,-0.76423 0.5861,-1.23162 0,-0.12522 -0.0146,-0.25151 -0.046,-0.37673 -0.14597,-0.59152 -0.62316,-1.0546 -1.23622,-1.2014 l -92.50849,-22.23409 c -0.46821,-0.11011 -0.96225,-0.0259 -1.36085,0.23315 z" />
      <path
         style="fill:#774e26"
         inkscape:connector-curvature="0"
         id="path9"
         d="m 189.52022,845.63137 c -0.67032,0 -1.33165,0.19214 -1.89755,0.55914 l -34.78247,22.63565 -33.64507,-21.56485 c -0.56141,-0.35945 -1.216,-0.54619 -1.87846,-0.54619 -0.24815,0 -0.49629,0.0259 -0.74331,0.0788 l -90.249387,19.52472 c -1.319304,0.28605 -2.334326,1.29855 -2.58359,2.57552 -0.248142,1.27804 0.317756,2.57552 1.439445,3.29982 l 34.935176,22.55792 -23.977653,33.07372 c -0.615301,0.84952 -0.77474,1.93002 -0.426668,2.91015 0.346949,0.98012 1.158742,1.74328 2.186115,2.05415 l 23.900178,7.23974 0.0887,53.17162 c 0.0022,1.4378 0.985829,2.70398 2.420783,3.11308 l 96.943601,27.68954 c 0.31439,0.09 0.63888,0.1349 0.96449,0.1349 0.30429,0 0.60969,-0.04 0.90611,-0.1187 l 86.11408,-23.0394 c 1.45741,-0.3896 2.46906,-1.66229 2.47692,-3.11844 l 0.31551,-56.84169 25.44068,-8.25224 c 1.0633,-0.34541 1.88071,-1.17442 2.17938,-2.21499 0.29979,-1.03949 0.0427,-2.15454 -0.68492,-2.97706 l -25.32727,-28.60597 30.60449,-25.38927 c 0.95776,-0.79338 1.37432,-2.03364 1.08126,-3.21562 -0.29193,-1.18197 -1.24407,-2.1092 -2.4713,-2.40389 L 190.341,845.72744 c -0.2706,-0.0648 -0.54681,-0.0961 -0.82078,-0.0961 l 0,0 z m -36.66543,27.11527 36.66543,-23.86187 92.50849,22.23409 0,0 0,0 -33.1499,27.50063 27.50665,31.06707 0,0 0,0 -27.73009,8.99381 -0.32899,59.1657 -86.11407,23.03933 -96.943599,-27.68843 -0.09207,-55.55393 -26.262575,-7.9554 0,0 0,0 24.011336,-33.12014 0,0 0,0 0,0 1.935728,-2.66943 -37.792732,-24.40483 0,0 0,0 90.249392,-19.52472 35.537,22.77812 0,0 z" />
      <polygon
         transform="matrix(1.1228121,0,0,1.0794297,140.36014,866.23552)"
         points="18.162,49.738 -67.24,25.625 -90.35,58.781 2.088,87.918 "
         id="polygon33"
         style="fill:#d49658" />
      <polygon
         transform="matrix(1.1228121,0,0,1.0794297,140.36014,866.23552)"
         points="96.65,30 18.916,50.49 39.264,86.41 121.148,58.781 "
         id="polygon41"
         style="fill:#d49658" />
      <polygon
         transform="matrix(1.1228121,0,0,1.0794297,140.36014,866.23552)"
         points="-67.24,25.625 11.129,6.031 -20.521,-15.07 -100.899,3.018 "
         id="polygon43"
         style="fill:#d49658" />
      <polygon
         transform="matrix(1.1228121,0,0,1.0794297,140.36014,866.23552)"
         points="-67.24,25.625 11.129,6.031 -20.521,-15.07 -100.899,3.018 "
         id="polygon45"
         style="opacity:0.15;fill:#ffffff" />
      <polygon
         transform="matrix(1.1228121,0,0,1.0794297,140.36014,866.23552)"
         points="96.652,29.824 19.654,50.258 -67.025,25.68 9.92,5.758 "
         id="polygon47"
         style="fill:#8a5c29" />
      <polyline
         transform="matrix(1.1228121,0,0,1.0794297,140.36014,866.23552)"
         points="11.129,6.031 43.783,-16.074 126.173,4.523 96.65,30 11.129,6.031  "
         id="polyline49"
         style="fill:#d49658" />
      <polygon
         transform="matrix(1.1228121,0,0,1.0794297,140.36014,866.23552)"
         points="-67.025,25.68 11.129,6.031 11.129,47.752 "
         id="polygon55"
         style="fill:#a06937" />
      <g
         transform="matrix(0.49499987,0,0,0.50060089,277.85981,683.96108)"
         id="g7078">
        <path
           transform="matrix(0.9291665,0,0,0.957308,10.71578,-86.540763)"
           d="m -297,174.78125 c -2.67085,-0.13298 -5.48412,-0.0437 -8.40625,0.28125 -25.39088,2.82308 -41.35311,21.99041 -39.3125,40.34375 0.55066,4.95267 2.2283,9.39347 5.03125,13.53125 A 19.453033,19.453033 0 0 1 -345.75,256.5 c -1.0462,0.62955 -2.24721,1.4744 -3.59375,2.46875 a 19.453033,19.453033 0 0 1 -22.25,0.59375 c -8.3603,-5.50768 -19.63199,-8.54873 -31.875,-7.1875 -25.39087,2.82307 -41.35311,21.99041 -39.3125,40.34375 1.67412,15.05721 14.89141,27.72295 34.0625,30.5 a 19.453033,19.453033 0 0 1 16.375,22.65625 c -0.53666,3.01006 -0.94767,6.03713 -1.21875,9.09375 a 19.453033,19.453033 0 0 1 -22.59375,17.46875 c -4.53554,-0.76175 -9.31608,-0.92357 -14.25,-0.375 -25.39084,2.82307 -41.35311,21.99043 -39.3125,40.34375 1.96692,17.69054 20.31365,32.40356 44.46875,30.96875 A 19.453033,19.453033 0 0 1 -404.78125,465 c -0.25432,2.21367 -0.24532,4.38733 0,6.59375 2.03984,18.34649 21.82233,33.54244 47.21875,30.71875 15.35458,-1.7072 27.68001,-9.85225 34.125,-19.71875 A 19.453033,19.453033 0 0 1 -301.84375,474.5 c 18.71244,5.30433 39.17142,7.17696 60.4375,4.8125 25.49198,-2.83431 48.60608,-11.37013 67.84375,-23.84375 a 19.453033,19.453033 0 0 1 19.71875,-0.875 c 4.62604,2.46099 10.52036,3.77599 16.9375,3.0625 11.03978,-1.22745 19.07697,-8.0338 21.8125,-14.625 a 19.453033,19.453033 0 0 1 30.4375,-7.46875 c 7.520616,6.28655 18.906423,10.15368 31.53125,8.75 22.660165,-2.51947 36.616498,-19.46206 34.84375,-35.40625 -1.28902,-11.59353 -10.312579,-21.55631 -24.40625,-25.5625 a 19.453033,19.453033 0 0 1 -11.4375,-28.625 c 3.170094,-5.35774 4.46322,-10.86614 3.8125,-16.71875 -0.778227,-6.99943 -4.186295,-13.09236 -10.0625,-18.0625 a 19.453033,19.453033 0 0 1 -3.28125,-26.09375 c 4.812143,-6.77545 6.884606,-14.13736 6.03125,-21.8125 -1.808181,-16.26289 -17.307388,-29.88854 -38.78125,-30.96875 a 19.453033,19.453033 0 0 1 -18.28125,-22.25 c 0.30864,-2.12026 0.34315,-4.22565 0.0937,-6.46875 -1.77348,-15.95076 -19.10435,-29.45534 -41.75,-26.9375 -10.78437,1.19905 -19.90663,5.94647 -26.03125,12.1875 a 19.453033,19.453033 0 0 1 -16.03125,5.71875 c -3.39712,-0.37923 -6.85182,-0.41255 -10.28125,-0.0312 -7.95576,0.88455 -15.02696,3.72883 -20.6875,7.71875 a 19.453033,19.453033 0 0 1 -29.875,-10.34375 c -4.02333,-13.5097 -18.63024,-24.92304 -37.75,-25.875 z"
           id="path7072"
           style="fill:#376e04;fill-opacity:1;fill-rule:nonzero;stroke:none;stroke-width:0.5;marker:none;visibility:visible;display:inline;overflow:visible;enable-background:accumulate"
           inkscape:original="M -296.03125 155.34375 C -299.80222 155.156 -303.66117 155.28498 -307.5625 155.71875 C -342.12553 159.56163 -367.42978 187.27708 -364.0625 217.5625 C -363.15197 225.75192 -360.23385 233.27071 -355.78125 239.84375 C -357.56086 240.91463 -359.26194 242.09826 -360.90625 243.3125 C -373.1688 235.23406 -388.94623 231.17683 -405.625 233.03125 C -440.18803 236.87412 -465.49228 264.58958 -462.125 294.875 C -459.36143 319.73084 -438.13094 338.6111 -411.5 342.46875 C -412.13539 346.03261 -412.61567 349.62118 -412.9375 353.25 C -419.21924 352.19497 -425.81718 351.96878 -432.5625 352.71875 C -467.12551 356.56162 -492.42978 384.27709 -489.0625 414.5625 C -485.81695 443.7531 -457.1142 464.74266 -424.09375 462.78125 C -424.50661 466.37497 -424.53755 470.03951 -424.125 473.75 C -420.75774 504.03541 -389.96927 525.49913 -355.40625 521.65625 C -334.50744 519.33262 -316.99732 508.28424 -307.15625 493.21875 C -286.02 499.21015 -263.00594 501.29754 -239.25 498.65625 C -210.77041 495.48976 -184.76674 485.91497 -162.96875 471.78125 C -154.8557 476.09728 -145.04699 478.14487 -134.75 477 C -117.12481 475.04035 -102.8681 464.33789 -97.125 450.5 C -85.320079 460.36784 -68.697486 465.62741 -50.96875 463.65625 C -19.148827 460.11835 4.162527 434.63181 1.0625 406.75 C -1.1916938 386.47563 -16.795573 370.47479 -37.375 364.625 C -32.267282 355.9925 -29.829281 346.0922 -30.96875 335.84375 C -32.329978 323.60077 -38.560291 312.91934 -47.8125 305.09375 C -40.545369 294.8617 -36.866857 282.59614 -38.28125 269.875 C -41.266942 243.0215 -65.819716 223.11488 -95.4375 221.625 C -94.893551 217.88822 -94.818385 214.06948 -95.25 210.1875 C -98.350028 182.30568 -126.68008 162.52462 -158.5 166.0625 C -173.66034 167.74809 -186.88928 174.4301 -196.25 183.96875 C -200.96898 183.44196 -205.87188 183.3847 -210.84375 183.9375 C -222.08746 185.18762 -232.26505 189.22313 -240.59375 195.09375 C -247.28089 172.63939 -269.63448 156.65803 -296.03125 155.34375 z "
           inkscape:radius="-19.451088"
           sodipodi:type="inkscape:offset" />
        <path
           style="fill:#8f5902;fill-opacity:1;fill-rule:nonzero;stroke:none;stroke-width:0.5;marker:none;visibility:visible;display:inline;overflow:visible;enable-background:accumulate"
           d="m -342.97308,317.15509 c -24.78255,31.0552 79.0323,64.37939 82,104 5.51985,73.6935 -80,200 -122,214 -42,14 76.4517,-13.59639 108,-6 16.20771,3.90259 31.89707,32.31457 48,28 14.01762,-3.75584 10.28762,-37.24913 24,-42 25.68794,-8.89999 70,42 84,34 14,-8 -96,-198 -80,-212 16,-14 113.999997,-102 98,-154 -12,-9 -52.64363,124.20481 -92,108 5.27757,-50.1203 41,-111 10,-132 -12,-4 1.43152,124.01125 -38,126 -19.17718,-8.87277 18,-137 -54,-130 -14.35453,1.39558 50.97513,106.30752 25,123 -23.13711,14.86867 -36.51609,-28.74272 -58.8682,-44.76727 -9.21511,-6.60644 -27.05937,-25.09524 -34.1318,-16.23273 z"
           id="path6729"
           sodipodi:nodetypes="cccccccccccccccc"
           inkscape:connector-curvature="0" />
        <path
           sodipodi:type="inkscape:offset"
           inkscape:radius="-9.148819"
           inkscape:original="M -156.53125 370.875 C -158.57306 370.83759 -160.71875 370.9375 -162.96875 371.15625 C -177.32328 372.55183 -111.99362 477.46377 -137.96875 494.15625 C -161.10586 509.02492 -174.49164 465.39955 -196.84375 449.375 C -206.05886 442.76856 -223.89632 424.29374 -230.96875 433.15625 C -255.7513 464.21145 -151.93645 497.53564 -148.96875 537.15625 C -143.4489 610.84975 -228.96875 737.15625 -270.96875 751.15625 C -312.96875 765.15625 -194.51705 737.55986 -162.96875 745.15625 C -146.76104 749.05884 -131.07168 777.47082 -114.96875 773.15625 C -100.95113 769.40041 -104.68113 735.90712 -90.96875 731.15625 C -65.280807 722.25626 -20.96875 773.15625 -6.96875 765.15625 C 7.0312502 757.15625 -102.96875 567.15625 -86.96875 553.15625 C -70.968747 539.15625 27.031247 451.15625 11.03125 399.15625 C -0.96875032 390.15625 -41.61238 523.36106 -80.96875 507.15625 C -75.691177 457.03595 -39.96875 396.15625 -70.96875 375.15625 C -82.968747 371.15625 -69.53723 499.1675 -108.96875 501.15625 C -127.54664 492.56075 -93.234987 372.03462 -156.53125 370.875 z "
           style="fill:#c17d11;fill-opacity:1;fill-rule:nonzero;stroke:none;stroke-width:0.5;marker:none;visibility:visible;display:inline;overflow:visible;filter:url(#filter6809);enable-background:accumulate"
           id="path6735"
           d="m -154.5625,380.1875 c 0.47618,1.60461 0.99702,3.33616 1.71875,5.34375 3.51206,9.76927 9.52905,23.59665 15.25,38.03125 5.32764,13.44224 10.32508,27.33254 13,40.03125 -0.0112,-9.67492 0.003,-19.75537 -0.53125,-29.875 -0.79932,-15.12924 -3.14749,-29.55186 -8.03125,-39.03125 -4.59541,-8.91969 -10.03433,-13.75291 -21.40625,-14.5 z m 86.78125,19.84375 c -0.361926,4.82605 -0.732006,9.75062 -1.125,15.53125 0.893816,-5.7754 1.393022,-11.11723 1.125,-15.53125 z m 68.84375,26.625 c -5.2585097,9.92373 -10.8834972,21.13866 -17.75,33.625 -2.10235,3.823 -4.25297,7.64875 -6.46875,11.40625 7.875836,-10.81686 14.8046121,-21.83458 19.5625,-32.28125 2.0168151,-4.42822 3.47274291,-8.65756 4.65625,-12.75 z m -225.78125,13.75 c -0.72616,1.26848 -1.01432,2.27022 -0.875,3.4375 0.19273,1.61478 1.25199,4.20957 3.78125,7.46875 5.05851,6.51836 15.36352,14.77383 26.875,23.28125 7.14615,5.28127 14.72227,10.76756 21.96875,16.5 -0.57869,-0.6825 -1.2442,-1.27347 -1.8125,-1.96875 -9.71408,-11.88458 -18.72249,-26.08699 -27.40625,-32.3125 -5.61784,-4.02751 -12.04631,-10.04616 -17.59375,-13.75 -2.1002,-1.40223 -3.79056,-2.20291 -4.9375,-2.65625 z m 100.9375,47.71875 c -1.36229,5.29181 -4.23735,10.49746 -9.25,13.71875 -7.83356,5.0341 -17.43041,5.47314 -24.59375,2.15625 -0.46592,-0.21574 -0.86327,-0.51558 -1.3125,-0.75 9.85664,9.50164 18.10768,20.0541 19.09375,33.21875 3.05187,40.74442 -17.9892,91.36936 -44.5,134.84375 -13.2554,21.73719 -27.98544,41.53793 -42.34375,57.0625 -4.09821,4.43109 -8.11574,8.42874 -12.09375,12.125 12.52943,-1.80905 26.09872,-3.62857 38.9375,-4.75 15.23464,-1.3307 28.65174,-1.99924 39.03125,0.5 12.36323,2.97689 20.3027,12.36258 27.9375,19.125 3.8174,3.38121 7.41795,6.21692 10.1875,7.6875 2.76955,1.47058 4.10139,1.58287 5.34375,1.25 0.12296,-0.033 0.66223,-0.12022 1.90625,-2.65625 1.24402,-2.53603 2.48872,-6.8025 3.75,-11.5 1.26128,-4.6975 2.52632,-9.82764 4.84375,-14.8125 2.31743,-4.98486 6.18365,-10.52543 12.875,-12.84375 9.739692,-3.37447 19.557415,-0.92264 28.5625,2.90625 9.005085,3.82889 17.736478,9.39625 25.875,14.78125 8.138522,5.385 15.723049,10.62959 21.46875,13.71875 0.628172,0.33773 0.859592,0.34388 1.4375,0.625 -1.567371,-5.14639 -4.106246,-12.01558 -7.625,-20.34375 -7.946428,-18.80757 -19.862186,-43.72289 -31.75,-68.875 -11.887814,-25.15211 -23.727494,-50.54634 -31.75,-70.90625 -4.011253,-10.17995 -7.072665,-19.02809 -8.71875,-26.46875 -0.823042,-3.72033 -1.340556,-7.06382 -1.21875,-10.5 0.121806,-3.43618 0.78059,-7.7377 4.6875,-11.15625 5.065502,-4.43231 18.908742,-17.04415 34.375,-33.09375 -1.308776,0.74184 -2.643737,1.44415 -4.03125,2.03125 -6.632644,2.80647 -14.565208,3.37742 -21.78125,0.40625 a 9.1497339,9.1497339 0 0 1 -5.625,-9.4375 c 0.194462,-1.84678 0.487162,-3.70638 0.75,-5.5625 -0.177971,0.19961 -0.317467,0.42901 -0.5,0.625 -4.661471,5.00523 -11.27985,8.65764 -18.6875,9.03125 a 9.1497339,9.1497339 0 0 1 -4.3125,-0.8125 c -6.50672,-3.01049 -8.61334,-8.98734 -9.84375,-14.25 -0.52506,-2.24577 -0.85506,-4.63383 -1.125,-7.09375 z"
           transform="translate(-111,-117)" />
        <path
           style="opacity:0.25;fill:#000000;fill-opacity:1;fill-rule:nonzero;stroke:none;stroke-width:0.5;marker:none;visibility:visible;display:inline;overflow:visible;enable-background:accumulate"
           d="m -266.53558,253.87384 c -2.04181,-0.0374 -4.1875,0.0625 -6.4375,0.28125 -14.35453,1.39558 50.97513,106.30752 25,123 -23.13711,14.86867 -36.52289,-28.7567 -58.875,-44.78125 -9.21508,-6.60644 -27.05257,-25.08126 -34.125,-16.21875 -23.80531,29.83061 71.03983,61.75645 81.1875,99.34375 15.55242,2.52641 31.8616,3.04091 48.53125,1.1875 16.69699,-1.85644 32.54191,-5.95465 47.1875,-11.84375 33.09217,-34.03215 76.107737,-86.89205 65.09375,-122.6875 -12,-9 -52.64363,124.20481 -92,108 5.27757,-50.1203 41,-111 10,-132 -12,-4 1.43152,124.01125 -38,126 -18.57789,-8.5955 15.73376,-129.12163 -47.5625,-130.28125 z"
           id="path6813"
           inkscape:connector-curvature="0" />
        <path
           style="fill:#4e9a06;fill-opacity:1;fill-rule:nonzero;stroke:none;stroke-width:0.5;marker:none;visibility:visible;display:inline;overflow:visible;enable-background:accumulate"
           d="m -297.56131,1.7139522 c -34.56303,3.8428711 -59.87959,31.5568778 -56.51231,61.8422988 0.91054,8.189409 3.84173,15.709365 8.29433,22.28241 -1.77962,1.070867 -3.47325,2.247469 -5.11756,3.461709 -12.26255,-8.078444 -28.04329,-12.131664 -44.72206,-10.277244 -34.56302,3.842871 -59.87958,31.556874 -56.5123,61.842294 2.76358,24.85584 24.00191,43.74503 50.63285,47.60268 -0.63538,3.56387 -1.1199,7.15906 -1.44173,10.78788 -6.28174,-1.05503 -12.87012,-1.2731 -19.61544,-0.52313 -34.56302,3.84287 -59.87958,31.55689 -56.5123,61.8423 3.24554,29.19061 31.95474,50.17042 64.97519,48.20901 -0.41287,3.59371 -0.44971,7.26709 -0.0372,10.97758 3.36727,30.28542 34.14956,51.73068 68.71258,47.8878 20.89882,-2.32363 38.4051,-13.37758 48.24617,-28.44307 21.13625,5.99141 44.17019,8.10618 67.92613,5.46489 28.47959,-3.16649 54.48064,-12.74118 76.27863,-26.8749 8.11305,4.31602 17.91864,6.34001 28.21563,5.19514 17.62519,-1.95964 31.870725,-12.6684 37.613822,-26.50629 11.804918,9.86785 28.4464,15.13678 46.175136,13.16562 31.819925,-3.53789 55.129858,-29.02871 52.029831,-56.91052 -2.2541939,-20.27436 -17.8710497,-36.25289 -38.450477,-42.10268 5.107719,-8.6325 7.559666,-18.54359 6.420197,-28.79204 -1.361228,-12.24297 -7.594279,-22.93872 -16.846488,-30.76431 7.26713,-10.23204 10.926209,-22.48305 9.511816,-35.20419 -2.985691,-26.853487 -27.534028,-46.771459 -57.151812,-48.261339 0.543953,-3.736792 0.637846,-7.5546 0.206231,-11.43658 -3.100025,-27.881815 -31.443286,-47.6610448 -63.263206,-44.123163 -15.16035,1.685595 -28.39176,8.367793 -37.75248,17.906446 -4.71898,-0.526798 -9.6189,-0.565541 -14.59077,-0.01275 -11.24371,1.250127 -21.40418,5.264418 -29.73288,11.135033 -7.64245,-25.662132 -35.76891,-42.8410283 -66.97957,-39.3708878 z"
           id="path6161"
           inkscape:connector-curvature="0" />
        <path
           sodipodi:type="inkscape:offset"
           inkscape:radius="-19.451088"
           inkscape:original="M -296.03125 155.34375 C -299.80222 155.156 -303.66117 155.28498 -307.5625 155.71875 C -342.12553 159.56163 -367.42978 187.27708 -364.0625 217.5625 C -363.15197 225.75192 -360.23385 233.27071 -355.78125 239.84375 C -357.56086 240.91463 -359.26194 242.09826 -360.90625 243.3125 C -373.1688 235.23406 -388.94623 231.17683 -405.625 233.03125 C -440.18803 236.87412 -465.49228 264.58958 -462.125 294.875 C -459.36143 319.73084 -438.13094 338.6111 -411.5 342.46875 C -412.13539 346.03261 -412.61567 349.62118 -412.9375 353.25 C -419.21924 352.19497 -425.81718 351.96878 -432.5625 352.71875 C -467.12551 356.56162 -492.42978 384.27709 -489.0625 414.5625 C -485.81695 443.7531 -457.1142 464.74266 -424.09375 462.78125 C -424.50661 466.37497 -424.53755 470.03951 -424.125 473.75 C -420.75774 504.03541 -389.96927 525.49913 -355.40625 521.65625 C -334.50744 519.33262 -316.99732 508.28424 -307.15625 493.21875 C -286.02 499.21015 -263.00594 501.29754 -239.25 498.65625 C -210.77041 495.48976 -184.76674 485.91497 -162.96875 471.78125 C -154.8557 476.09728 -145.04699 478.14487 -134.75 477 C -117.12481 475.04035 -102.8681 464.33789 -97.125 450.5 C -85.320079 460.36784 -68.697486 465.62741 -50.96875 463.65625 C -19.148827 460.11835 4.162527 434.63181 1.0625 406.75 C -1.1916938 386.47563 -16.795573 370.47479 -37.375 364.625 C -32.267282 355.9925 -29.829281 346.0922 -30.96875 335.84375 C -32.329978 323.60077 -38.560291 312.91934 -47.8125 305.09375 C -40.545369 294.8617 -36.866857 282.59614 -38.28125 269.875 C -41.266942 243.0215 -65.819716 223.11488 -95.4375 221.625 C -94.893551 217.88822 -94.818385 214.06948 -95.25 210.1875 C -98.350028 182.30568 -126.68008 162.52462 -158.5 166.0625 C -173.66034 167.74809 -186.88928 174.4301 -196.25 183.96875 C -200.96898 183.44196 -205.87188 183.3847 -210.84375 183.9375 C -222.08746 185.18762 -232.26505 189.22313 -240.59375 195.09375 C -247.28089 172.63939 -269.63448 156.65803 -296.03125 155.34375 z "
           style="fill:#73d216;fill-opacity:1;fill-rule:nonzero;stroke:none;stroke-width:0.5;marker:none;visibility:visible;display:inline;overflow:visible;filter:url(#filter6725);enable-background:accumulate"
           id="path6190"
           d="m -297,174.78125 c -2.67085,-0.13298 -5.48412,-0.0437 -8.40625,0.28125 -25.39088,2.82308 -41.35311,21.99041 -39.3125,40.34375 0.55066,4.95267 2.2283,9.39347 5.03125,13.53125 A 19.453033,19.453033 0 0 1 -345.75,256.5 c -1.0462,0.62955 -2.24721,1.4744 -3.59375,2.46875 a 19.453033,19.453033 0 0 1 -22.25,0.59375 c -8.3603,-5.50768 -19.63199,-8.54873 -31.875,-7.1875 -25.39087,2.82307 -41.35311,21.99041 -39.3125,40.34375 1.67412,15.05721 14.89141,27.72295 34.0625,30.5 a 19.453033,19.453033 0 0 1 16.375,22.65625 c -0.53666,3.01006 -0.94767,6.03713 -1.21875,9.09375 a 19.453033,19.453033 0 0 1 -22.59375,17.46875 c -4.53554,-0.76175 -9.31608,-0.92357 -14.25,-0.375 -25.39084,2.82307 -41.35311,21.99043 -39.3125,40.34375 1.96692,17.69054 20.31365,32.40356 44.46875,30.96875 A 19.453033,19.453033 0 0 1 -404.78125,465 c -0.25432,2.21367 -0.24532,4.38733 0,6.59375 2.03984,18.34649 21.82233,33.54244 47.21875,30.71875 15.35458,-1.7072 27.68001,-9.85225 34.125,-19.71875 A 19.453033,19.453033 0 0 1 -301.84375,474.5 c 18.71244,5.30433 39.17142,7.17696 60.4375,4.8125 25.49198,-2.83431 48.60608,-11.37013 67.84375,-23.84375 a 19.453033,19.453033 0 0 1 19.71875,-0.875 c 4.62604,2.46099 10.52036,3.77599 16.9375,3.0625 11.03978,-1.22745 19.07697,-8.0338 21.8125,-14.625 a 19.453033,19.453033 0 0 1 30.4375,-7.46875 c 7.520616,6.28655 18.906423,10.15368 31.53125,8.75 22.660165,-2.51947 36.616498,-19.46206 34.84375,-35.40625 -1.28902,-11.59353 -10.312579,-21.55631 -24.40625,-25.5625 a 19.453033,19.453033 0 0 1 -11.4375,-28.625 c 3.170094,-5.35774 4.46322,-10.86614 3.8125,-16.71875 -0.778227,-6.99943 -4.186295,-13.09236 -10.0625,-18.0625 a 19.453033,19.453033 0 0 1 -3.28125,-26.09375 c 4.812143,-6.77545 6.884606,-14.13736 6.03125,-21.8125 -1.808181,-16.26289 -17.307388,-29.88854 -38.78125,-30.96875 a 19.453033,19.453033 0 0 1 -18.28125,-22.25 c 0.30864,-2.12026 0.34315,-4.22565 0.0937,-6.46875 -1.77348,-15.95076 -19.10435,-29.45534 -41.75,-26.9375 -10.78437,1.19905 -19.90663,5.94647 -26.03125,12.1875 a 19.453033,19.453033 0 0 1 -16.03125,5.71875 c -3.39712,-0.37923 -6.85182,-0.41255 -10.28125,-0.0312 -7.95576,0.88455 -15.02696,3.72883 -20.6875,7.71875 a 19.453033,19.453033 0 0 1 -29.875,-10.34375 c -4.02333,-13.5097 -18.63024,-24.92304 -37.75,-25.875 z"
           transform="translate(10,-160)" />
        <path
           style="opacity:0.99647887;fill:#e9b96e;fill-opacity:1;fill-rule:nonzero;stroke:none;stroke-width:0.5;marker:none;visibility:visible;display:inline;overflow:visible;enable-background:accumulate"
           d="m -245.52268,432.50857 c -3.34603,11.04001 3.32232,21.68588 3.5625,32.71875 0.087,-10.91058 -0.96998,-22.63107 -3.5625,-32.71875 z m 3.25,38.78125 c -1.84127,9.63831 -3.94516,19.33813 -6.90625,28.625 4.05637,-9.06069 6.32041,-19.02574 6.96875,-28.9375 l -0.0625,0.3125 z"
           id="path6820"
           inkscape:connector-curvature="0" />
        <path
           style="opacity:0.95;fill:#e9b96e;fill-opacity:1;fill-rule:nonzero;stroke:none;stroke-width:0.5;marker:none;visibility:visible;display:inline;overflow:visible;enable-background:accumulate"
           d="m -209.57601,496.48039 c -6.42544,16.66923 -5.17902,35.09595 -9.9375,52.15625 -3.20476,25.02006 -10.61184,52.24536 1.28125,76.0625 3.26125,3.95396 1.11973,-2.03386 0.625,-3.9375 -2.94552,-10.12555 -7.77367,-19.96823 -5.88111,-30.81058 1.24746,-31.70057 8.53808,-62.69274 14.06861,-93.84567 l -0.15625,0.375 z"
           id="path6822"
           inkscape:connector-curvature="0" />
        <path
           style="opacity:0.99647887;fill:#e9b96e;fill-opacity:1;fill-rule:nonzero;stroke:none;stroke-width:0.5;marker:none;visibility:visible;display:inline;overflow:visible;enable-background:accumulate"
           d="m -207.78125,437.90625 c -5.09113,12.45604 -1.98178,26.61141 -4.59375,39.6875 6.12431,23.61926 18.40217,45.15818 24.6875,68.75 9.35383,24.23596 28.82032,43.05544 38.21875,67.15625 1.85577,-0.28801 -0.38872,-4.45931 -0.65625,-6 -3.57952,-11.07511 -11.09769,-20.09912 -17.9375,-29.125 -15.87667,-22.90876 -23.43219,-50.22259 -33.625,-75.90625 -12.65007,-19.09726 -9.44797,-43.40608 -6,-64.78125 l -0.0937,0.21875 z"
           id="path6824"
           inkscape:connector-curvature="0" />
        <path
           style="opacity:0.99647887;fill:#e9b96e;fill-opacity:1;fill-rule:nonzero;stroke:none;stroke-width:0.5;marker:none;visibility:visible;display:inline;overflow:visible;enable-background:accumulate"
           d="m -192.5625,587.8125 c -8.90648,0.10342 -11.17114,11.82226 -7.53125,18.15625 3.85769,-0.9781 2.96607,-7.94483 0.8125,-10.78125 -1.30074,-2.94648 3.95944,-5.24454 6.78125,-6.125 8.18598,-1.13553 10.88625,8.88217 13.3125,14.6875 2.48422,5.44489 4.17384,13.56458 10.46875,15.5625 3.72653,-2.00098 -1.95168,-5.63586 -3.375,-7.21875 -3.22934,-2.42997 -6.65489,-5.49309 -4.375,-9.71875 1.00295,-8.67885 -8.15789,-15.07725 -16.09375,-14.5625 z"
           id="path6826"
           inkscape:connector-curvature="0" />
        <path
           style="opacity:0.99647887;fill:#e9b96e;fill-opacity:1;fill-rule:nonzero;stroke:none;stroke-width:0.5;marker:none;visibility:visible;display:inline;overflow:visible;enable-background:accumulate"
           d="m -257.93382,548.82843 c -1.59068,5.39408 -3.4712,10.65799 -5.65625,15.84375 2.84419,-5.12877 6.4313,-10.53909 5.875,-16.625 l -0.21875,0.78125 z"
           id="path6828"
           inkscape:connector-curvature="0" />
        <path
           style="opacity:0.99647887;fill:#e9b96e;fill-opacity:1;fill-rule:nonzero;stroke:none;stroke-width:0.5;marker:none;visibility:visible;display:inline;overflow:visible;enable-background:accumulate"
           d="m -209.09375,564.71875 c -2.68987,4.58623 -5.55649,11.02511 -5.96875,15.40625 3.56596,-4.57672 4.26282,-10.61948 6.3125,-15.9375 l -0.34375,0.53125 z"
           id="path6830"
           inkscape:connector-curvature="0" />
        <path
           id="path6874"
           d="m -319.48002,614.71658 c -2.77247,-11.25371 27.20506,-31.11378 25.78267,-42.92768 8.28484,-19.21806 15.67808,-40.09211 19.10086,-61.40669 5.0938,-21.89655 15.69462,-38.89945 20.8127,-60.6739 1.01059,0.26021 -0.21168,4.02887 -0.35737,5.42084 -1.94929,10.00607 -6.04344,18.15903 -9.76818,26.31367 -8.64593,20.69746 -12.76042,45.37478 -18.31109,68.57929 -6.88882,17.25387 -39.08619,45.5802 -37.20854,64.8921 l -0.0511,-0.19763 z"
           style="opacity:0.99647887;fill:#e9b96e;fill-opacity:1;fill-rule:nonzero;stroke:none;stroke-width:0.5;marker:none;visibility:visible;display:inline;overflow:visible;enable-background:accumulate"
           sodipodi:nodetypes="ccccccccc"
           inkscape:connector-curvature="0" />
        <path
           style="opacity:0.95;fill:#8ae234;fill-opacity:1;fill-rule:nonzero;stroke:none;stroke-width:0.5;marker:none;visibility:visible;display:inline;overflow:visible;filter:url(#filter7058);enable-background:accumulate"
           d="m -194.00504,142.42717 c -27.59352,0 -50.40999,18.09058 -54,41.53125 13.30614,-17.59288 39.22895,-29.53125 69,-29.53125 8.48731,0 16.65451,0.98516 24.3125,2.78125 -9.92058,-9.10506 -23.86402,-14.78125 -39.3125,-14.78125 z"
           id="path6876"
           inkscape:connector-curvature="0" />
        <path
           id="path6882"
           d="m -254.39957,135.88746 c -22.92334,-15.35978 -51.94817,-13.03168 -67.97869,4.44332 20.84707,-7.20851 49.02789,-2.69653 73.76022,13.87536 7.05084,4.72441 13.28736,10.08906 18.64946,15.84394 -3.17325,-13.08627 -11.59716,-25.56331 -24.43099,-34.16262 z"
           style="opacity:0.95;fill:#8ae234;fill-opacity:1;fill-rule:nonzero;stroke:none;stroke-width:0.5;marker:none;visibility:visible;display:inline;overflow:visible;filter:url(#filter7062);enable-background:accumulate"
           inkscape:connector-curvature="0" />
        <path
           style="opacity:0.95;fill:#8ae234;fill-opacity:1;fill-rule:nonzero;stroke:none;stroke-width:0.5;marker:none;visibility:visible;display:inline;overflow:visible;filter:url(#filter7054);enable-background:accumulate"
           d="m -175.60989,118.70261 c 16.95952,-12.91275 38.43315,-10.95555 50.29311,3.73544 -15.42342,-6.0601 -36.27262,-2.26694 -54.5705,11.66483 -5.21647,3.97174 -9.83047,8.48173 -13.79755,13.31978 2.34769,-11.00145 8.58,-21.49073 18.07494,-28.72005 z"
           id="path6884"
           inkscape:connector-curvature="0" />
        <path
           id="path7066"
           d="m -194.00504,142.42717 c -27.59352,0 -50.40999,18.09058 -54,41.53125 13.30614,-17.59288 39.22895,-29.53125 69,-29.53125 8.48731,0 16.65451,0.98516 24.3125,2.78125 -9.92058,-9.10506 -23.86402,-14.78125 -39.3125,-14.78125 z"
           style="opacity:0.95;fill:#4e9a06;fill-opacity:1;fill-rule:nonzero;stroke:none;stroke-width:0.5;marker:none;visibility:visible;display:inline;overflow:visible;filter:url(#filter7058);enable-background:accumulate"
           transform="matrix(0.8516972,0.5240343,0.5240343,-0.8516972,5.6207801,513.3793)"
           inkscape:connector-curvature="0" />
        <path
           style="opacity:0.95;fill:#4e9a06;fill-opacity:1;fill-rule:nonzero;stroke:none;stroke-width:0.5;marker:none;visibility:visible;display:inline;overflow:visible;filter:url(#filter7062);enable-background:accumulate"
           d="m -254.39957,135.88746 c -22.92334,-15.35978 -51.94817,-13.03168 -67.97869,4.44332 20.84707,-7.20851 49.02789,-2.69653 73.76022,13.87536 7.05084,4.72441 13.28736,10.08906 18.64946,15.84394 -3.17325,-13.08627 -11.59716,-25.56331 -24.43099,-34.16262 z"
           id="path7068"
           transform="matrix(0.9511703,-0.3086666,-0.3086666,-0.9511703,-3.846703,365.60221)"
           inkscape:connector-curvature="0" />
        <path
           id="path7070"
           d="m -175.60989,118.70261 c 16.95952,-12.91275 38.43315,-10.95555 50.29311,3.73544 -15.42342,-6.0601 -36.27262,-2.26694 -54.5705,11.66483 -5.21647,3.97174 -9.83047,8.48173 -13.79755,13.31978 2.34769,-11.00145 8.58,-21.49073 18.07494,-28.72005 z"
           style="opacity:0.95;fill:#4e9a06;fill-opacity:1;fill-rule:nonzero;stroke:none;stroke-width:0.5;marker:none;visibility:visible;display:inline;overflow:visible;filter:url(#filter7054);enable-background:accumulate"
           transform="matrix(1,0,0,-1,8,419.06758)"
           inkscape:connector-curvature="0" />
      </g>
      <polygon
         transform="matrix(1.1228121,0,0,1.0794297,140.36014,866.23552)"
         points="19.654,50.258 19.463,143.27 -66.877,117.617 -67.025,25.68 "
         id="polygon16"
         style="fill:url(#linearGradient4186)" />
      <polygon
         transform="matrix(1.1228121,0,0,1.0794297,140.36014,866.23552)"
         points="19.654,50.258 96.652,29.824 96.158,121.926 19.463,143.27 "
         id="polygon23"
         style="fill:url(#linearGradient4188)" />
      <path
         d="m 164.28839,925.84703 v 94.48567 c 0,0 -0.82864,0.5527 -2.31636,0.5527 -1.46976,-0.1727 -2.20184,-0.5991 -3.14275,-0.9661 0,-0.1349 0,-77.33679 0,-95.60074 1.22161,-2.78709 1.68197,-3.84169 1.68197,-3.84169 h 1.21937 l 2.55777,5.37016 z"
         id="path25"
         inkscape:connector-curvature="0"
         style="fill:#d49658" />
      <g
         transform="matrix(1.1228121,0,0,1.0794297,140.36014,866.23552)"
         id="g27">
        <path
           d="M -68.477,24.763 -91.586,57.92 c -0.274,0.393 -0.345,0.894 -0.19,1.348 0.155,0.454 0.516,0.807 0.974,0.951 L 1.635,89.355 c 0.742,0.233 1.54,-0.138 1.842,-0.853 l 16.074,-38.18 c 0.167,-0.398 0.156,-0.85 -0.031,-1.238 -0.187,-0.39 -0.533,-0.68 -0.948,-0.797 L -66.83,24.174 c -0.619,-0.174 -1.277,0.06 -1.647,0.589 z"
           id="path29"
           inkscape:connector-curvature="0"
           style="fill:#d49658" />
        <path
           d="m -67.24,22.611 c -0.969,0 -1.9,0.469 -2.474,1.291 l -23.109,33.156 c -0.548,0.787 -0.689,1.788 -0.38,2.696 0.309,0.908 1.032,1.614 1.947,1.903 L 1.181,90.794 c 0.301,0.095 0.606,0.14 0.906,0.14 1.184,0 2.296,-0.701 2.778,-1.845 L 20.939,50.909 C 21.274,50.112 21.252,49.21 20.877,48.431 20.502,47.652 19.812,47.073 18.98,46.837 L -66.422,22.724 c -0.271,-0.076 -0.546,-0.113 -0.818,-0.113 l 0,0 z m -23.11,36.171 23.109,-33.156 85.402,24.113 0,0 0,0 -16.074,38.18 -92.437,-29.137 0,0 0,0 z"
           id="path31"
           inkscape:connector-curvature="0"
           style="fill:#774e26" />
      </g>
      <polygon
         transform="matrix(1.1228121,0,0,1.0794297,140.36014,866.23552)"
         points="18.162,49.738 -67.24,25.625 -90.35,58.781 2.088,87.918 "
         id="polygon53"
         style="fill:#d49658" />
      <g
         transform="matrix(1.1228121,0,0,1.0794297,140.36014,866.23552)"
         id="g35">
        <path
           d="M 96.266,28.542 18.532,49.033 c -0.452,0.119 -0.823,0.441 -1.004,0.872 -0.182,0.431 -0.153,0.921 0.077,1.328 l 20.348,35.92 c 0.356,0.628 1.109,0.916 1.793,0.685 L 121.63,60.209 c 0.474,-0.159 0.838,-0.544 0.971,-1.025 0.134,-0.482 0.02,-0.998 -0.305,-1.379 L 97.797,29.023 c -0.376,-0.441 -0.97,-0.628 -1.531,-0.481 z"
           id="path37"
           inkscape:connector-curvature="0"
           style="fill:#d49658" />
        <path
           d="m 96.649,26.986 c -0.256,0 -0.514,0.033 -0.768,0.1 l -77.734,20.49 c -0.904,0.238 -1.647,0.883 -2.01,1.744 -0.363,0.861 -0.305,1.843 0.155,2.656 l 20.348,35.92 c 0.548,0.966 1.562,1.529 2.624,1.529 0.321,0 0.646,-0.052 0.963,-0.159 l 81.884,-27.629 c 0.947,-0.32 1.675,-1.088 1.941,-2.052 0.267,-0.963 0.038,-1.996 -0.61,-2.758 L 98.944,28.047 c -0.58,-0.683 -1.424,-1.061 -2.295,-1.061 l 0,0 z m -77.734,23.505 77.734,-20.49 24.498,28.781 0,0 0,0 -81.884,27.629 -20.348,-35.92 0,0 0,0 z"
           id="path39"
           inkscape:connector-curvature="0"
           style="fill:#774e26" />
      </g>
      <path
         d="m 174.64745,1005.0988 c 0.0135,1.3719 1.14639,2.1923 2.52184,1.8253 l 26.06159,-6.95911 c 1.3732,-0.36916 2.50836,-1.78969 2.52633,-3.16273 l 0.13586,-12.88947 c 0.018,-1.37195 -1.10485,-2.2247 -2.48928,-1.89116 l -26.38945,6.29739 c -1.3833,0.33139 -2.50612,1.72277 -2.49377,3.09473 l 0.12688,13.68505 z"
         id="path57"
         inkscape:connector-curvature="0"
         style="fill:#ffffff;stroke:#ffeaa6;stroke-width:1.6958375" />
      <g
         transform="matrix(-0.76637373,0,0,0.71318903,364.8083,515.57931)"
         id="g3957">
        <path
           inkscape:connector-curvature="0"
           style="fill:#007cff;fill-opacity:1;stroke:#0030ff;stroke-width:4;stroke-miterlimit:4;stroke-opacity:1;stroke-dasharray:none"
           d="m 110.01492,589.11846 c -10.970002,3.88788 -20.656431,6.36698 -34.571235,10.79215 5.455765,69.54683 69.326615,41.81954 34.571235,-10.79215 z m -3.16424,-12.61907 c 0.18684,-9.66328 -0.31101,-18.97723 3.78104,-28.16373 4.6484,-9.85066 5.39126,-18.49096 2.81967,-32.79632 -4.67729,-26.01927 -14.564765,-42.24105 -27.917815,-45.80308 -28.48249,-4.2447 -32.01048,24.30925 -32.70088,45.19548 -1.572268,11.68898 8.106701,61.71181 19.81144,70.18505 11.502336,-3.00349 22.795468,-5.95036 34.206545,-8.6174 z"
           id="path2890"
           sodipodi:nodetypes="cccccscccc" />
        <path
           inkscape:connector-curvature="0"
           style="fill:#74c9f3;fill-opacity:1;stroke:#0030ff;stroke-width:4;stroke-miterlimit:4;stroke-opacity:1;stroke-dasharray:none"
           d="m 145.09045,672.91 c 10.97,3.88788 20.65643,6.36698 34.57123,10.79215 -5.45576,69.54683 -69.32661,41.81954 -34.57123,-10.79215 z m 3.16424,-12.61907 c -0.18684,-9.66328 0.31101,-18.97723 -3.78105,-28.16373 -4.6484,-9.85066 -5.39125,-18.49096 -2.81967,-32.79632 4.67729,-26.01927 14.56477,-42.24105 27.91782,-45.80308 28.48249,-4.2447 32.01048,24.30924 32.70088,45.19548 1.57227,11.68897 -8.1067,61.71181 -19.81144,70.18505 -11.50233,-3.00349 -22.79547,-5.95036 -34.20654,-8.6174 z"
           id="path2890-7"
           sodipodi:nodetypes="cccccscccc" />
      </g>
    </g>
  </g>
</svg>
